<svg xmlns="http://www.w3.org/2000/svg" width="81.779" height="61.735" viewBox="0 0 81.779 61.735"><defs><style>.a{fill:#fff;}.b{fill:#3646d8;}</style></defs><g transform="translate(-38.915 -18.265)"><rect class="a" width="77" height="58" rx="12" transform="translate(39 22)"/><path class="b" d="M47.864,52.411H33.392V31.552H41.3l1.507-9.817H33.392V15.36c0-2.686,1.316-5.3,5.535-5.3H43.21V1.7a52.314,52.314,0,0,0-7.6-.662c-7.761,0-12.828,4.7-12.828,13.213v7.483H14.151v9.817h8.627V52.411h-5.59C13.558,52.411,8,46.267,8,42.637V1.7C8-1.929,13.558-8.942,17.188-8.942h30.7a4.818,4.818,0,0,0-.737-.039c3.822.017,13.342.039,34.66.039,3.631,0,7.968,3.955,7.968,7.585V44.732c0,3.631-3.938,7.679-7.569,7.679H72.392V31.552H80.3l1.507-9.817H72.392V15.36c0-2.686,1.317-5.3,5.536-5.3H82.21V1.7a52.293,52.293,0,0,0-7.6-.662c-7.761,0-12.828,4.7-12.828,13.213v7.483H53.15v9.817h8.628V52.411H47.888a.02.02,0,0,1-.013.005A.018.018,0,0,1,47.864,52.411ZM47.151-8.981C42.909-9,45.688-9.012,47.151-8.981Z" transform="translate(30.915 27.265)"/></g></svg>