<svg xmlns="http://www.w3.org/2000/svg" viewBox="0 0 225.465 225.391" >
    <g transform="translate(0)">
        <g transform="translate(0 0)">
            <ellipse cx="112.733" cy="112.695" rx="112.733" ry="112.695" transform="translate(0 0)" fill="#ff001e" />
            <path
                d="M158.112,135.579l-13.737-14.653a6.833,6.833,0,1,0-9.971,9.347l3.244,3.461a17.74,17.74,0,1,0,20.463,1.844Z"
                transform="translate(-72.128 -66.522)" fill="#132c63" />
            <path
                d="M308.759,135.579,322.5,120.926a6.833,6.833,0,0,1,9.971,9.347l-3.244,3.461a17.74,17.74,0,1,1-20.463,1.844Z"
                transform="translate(-169.366 -66.522)" fill="#000f35" />
        </g>
        <path
            d="M226.191,354.839H57.726a5.445,5.445,0,0,1-5.445-5.445V272.951a5.445,5.445,0,0,1,5.445-5.445H226.191a5.445,5.445,0,0,1,5.445,5.445v76.444A5.445,5.445,0,0,1,226.191,354.839Z"
            transform="translate(-29.267 -149.787)" fill="#fff4f4" />
        <path
            d="M340.221,267.506H255.979v87.333h84.242a5.445,5.445,0,0,0,5.445-5.445V272.951a5.445,5.445,0,0,0-5.445-5.445Z"
            transform="translate(-143.296 -149.787)" fill="#f1e1db" />
        <g transform="translate(49.59 131.187)">
            <path
                d="M241.065,324.077a7.151,7.151,0,1,0,0-14.3h-.3l-.009-1.623a7.151,7.151,0,0,0-7.15-7.109h-.043a7.151,7.151,0,0,0-7.109,7.192l.009,1.539H212.606l0-.923a7.151,7.151,0,0,0-7.12-7.181h-.031a7.152,7.152,0,0,0-7.151,7.12l0,.984h-.237a7.151,7.151,0,1,0,0,14.3h.177l-.048,11.167h-.129a7.151,7.151,0,1,0,0,14.3h.068l-.007,1.55a7.151,7.151,0,0,0,7.12,7.181h.031a7.152,7.152,0,0,0,7.151-7.12l.007-1.611H226.7l.009,1.623a7.151,7.151,0,0,0,7.15,7.109h.043a7.151,7.151,0,0,0,7.109-7.192L241,349.546h.063a7.151,7.151,0,1,0,0-14.3h-.147l-.065-11.167Zm-14.449,11.167H212.5l.048-11.167h14.006Z"
                transform="translate(-156.463 -299.748)" fill="#132c63" />
            <path
                d="M120.572,298.1a7.151,7.151,0,0,0-7.151,7.151v20.325a7.151,7.151,0,1,0,14.3,0V305.252A7.151,7.151,0,0,0,120.572,298.1Z"
                transform="translate(-113.082 -298.101)" fill="#132c63" />
            <ellipse cx="7.151" cy="7.151" rx="7.151" ry="7.151" transform="translate(0 44.227)" fill="#132c63" />
        </g>
        <path
            d="M370.83,352.4a7.151,7.151,0,0,0-7.151,7.151v20.325a7.151,7.151,0,1,0,14.3,0V359.551A7.151,7.151,0,0,0,370.83,352.4Z"
            transform="translate(-203.587 -197.31)" fill="#000f35" />
        <ellipse cx="7.151" cy="7.151" rx="7.151" ry="7.151" transform="translate(160.431 131.187)" fill="#000f35" />
        <path
            d="M284.638,316.926a7.151,7.151,0,0,0-7.151-7.151h-.3l-.009-1.623a7.151,7.151,0,0,0-7.15-7.109h-.043a7.151,7.151,0,0,0-7.109,7.192l.009,1.539h-6.911v14.3h6.994l.065,11.167h-7.06v14.3h7.143l.009,1.623a7.151,7.151,0,0,0,7.15,7.109h.043a7.151,7.151,0,0,0,7.109-7.192l-.009-1.539h.063a7.151,7.151,0,0,0,0-14.3h-.147l-.065-11.167h.212a7.15,7.15,0,0,0,7.151-7.15Z"
            transform="translate(-143.296 -168.561)" fill="#000f35" />
    </g>
</svg>