<svg xmlns="http://www.w3.org/2000/svg" width="225.493" height="225.39" viewBox="0 0 225.493 225.39"><g transform="translate(0)"><g transform="translate(0.027 0)"><ellipse cx="112.733" cy="112.695" rx="112.733" ry="112.695" fill="#ffeb00"/></g><g transform="translate(51.297 119.623)"><path d="M178.037,318.5a68.091,68.091,0,0,1-35.856-10.092,69.591,69.591,0,0,1-24.89-26.866,6.6,6.6,0,1,1,11.689-6.146c9.843,18.721,28.182,29.9,49.057,29.9a54.153,54.153,0,0,0,48.919-29.7,6.6,6.6,0,1,1,11.729,6.068A67.146,67.146,0,0,1,178.037,318.5Z" transform="translate(-116.531 -271.862)" fill="#132c63"/></g><g transform="translate(50.297 46.123)"><path d="M153.119,134.229a6.6,6.6,0,0,1-6.6-6.6,9.526,9.526,0,1,0-19.052,0,6.6,6.6,0,0,1-13.206,0,22.732,22.732,0,1,1,45.464,0A6.6,6.6,0,0,1,153.119,134.229Z" transform="translate(-114.258 -104.894)" fill="#132c63"/><g transform="translate(79.381)"><path d="M333.448,134.229a6.6,6.6,0,0,1-6.6-6.6,9.526,9.526,0,1,0-19.052,0,6.6,6.6,0,0,1-13.206,0,22.732,22.732,0,1,1,45.464,0A6.6,6.6,0,0,1,333.448,134.229Z" transform="translate(-294.587 -104.894)" fill="#000f35"/></g></g><g transform="translate(0 133.459)"><path d="M37.628,313.494A20.1,20.1,0,0,0,2.2,332.454l5.678,11.2a61.761,61.761,0,0,1,6.646,27.8v17.131a6.6,6.6,0,0,0,6.6,6.6H48.514a6.6,6.6,0,0,0,6.6-6.6v-24.48a74.832,74.832,0,0,0-9.636-36.693Z" transform="translate(0 -303.292)" fill="#fff69a"/><path d="M431.53,305.726a20.178,20.178,0,0,0-27.126,7.769l-7.853,13.921a74.833,74.833,0,0,0-9.636,36.692v24.48a6.6,6.6,0,0,0,6.6,6.6H420.9a6.6,6.6,0,0,0,6.6-6.6V371.456a61.772,61.772,0,0,1,6.645-27.8l5.679-11.2A20,20,0,0,0,431.53,305.726Z" transform="translate(-216.595 -303.293)" fill="#fff69a"/></g><path d="M313.964,272.952a6.6,6.6,0,0,0-8.9,2.831,54.153,54.153,0,0,1-48.919,29.7h-.083v13.206h.083a67.144,67.144,0,0,0,60.647-36.842,6.6,6.6,0,0,0-2.83-8.9Z" transform="translate(-143.344 -152.435)" fill="#000f35"/><circle cx="16.754" cy="16.754" r="16.754" transform="translate(38.21 99.133)" fill="#3646d8"/><circle cx="16.754" cy="16.754" r="16.754" transform="translate(158.388 99.133)" fill="#3646d8"/></g></svg>