<svg xmlns="http://www.w3.org/2000/svg" width="225.465" height="225.391" viewBox="0 0 225.465 225.391"><g transform="translate(0)"><g transform="translate(0 0)"><ellipse cx="112.733" cy="112.695" rx="112.733" ry="112.695" transform="translate(0 0)" fill="#ffeb00"/></g><g transform="translate(49.916 72.395)"><path d="M152.253,193.879a6.6,6.6,0,0,1-6.6-6.6,9.526,9.526,0,1,0-19.052,0,6.6,6.6,0,0,1-13.206,0,22.732,22.732,0,0,1,45.464,0A6.6,6.6,0,0,1,152.253,193.879Z" transform="translate(-113.392 -164.544)" fill="#132c63"/></g><g transform="translate(129.296 72.395)"><path d="M332.581,193.879a6.6,6.6,0,0,1-6.6-6.6,9.526,9.526,0,1,0-19.052,0,6.6,6.6,0,0,1-13.206,0,22.732,22.732,0,1,1,45.464,0A6.6,6.6,0,0,1,332.581,193.879Z" transform="translate(-293.72 -164.544)" fill="#000f35"/></g><path d="M352.715,37.289h0c-18.389-22.044,11.531-47.864,30.6-28.868C404.1-11.321,431.671,17,413.921,37.289L387.1,65.318a5.235,5.235,0,0,1-7.571,0l-26.818-28.03Z" transform="translate(-194.23 -1.01)" fill="#ff001e"/><path d="M5.366,407.054h0c-17.158-20.569,10.759-44.662,28.555-26.936,19.4-18.421,45.117,8.009,28.555,26.936L37.454,433.208a4.885,4.885,0,0,1-7.064,0L5.366,407.054Z" transform="translate(0 -209.335)" fill="#ff001e"/><path d="M374.6,411.915h0c-14.936-17.9,9.366-38.877,24.856-23.447,16.883-16.035,39.274,6.971,24.856,23.447L402.53,434.682a4.252,4.252,0,0,1-6.149,0L374.6,411.915Z" transform="translate(-207.084 -214.462)" fill="#ff001e"/><g transform="translate(73.349 149.091)"><path d="M206,372.111c-16.11,0-30.971-9.668-38.784-25.232a5.6,5.6,0,0,1,5.8-8.048l.337.048a230.9,230.9,0,0,0,65.567.1,5.6,5.6,0,0,1,5.777,8.069c-7.834,15.458-22.662,25.06-38.7,25.06Z" transform="translate(-166.624 -338.772)" fill="#ff001e"/></g><g transform="translate(33.894 0.727)"><path d="M288.909,338.828a230.989,230.989,0,0,1-32.993,2.286v30.842h.073c16.036,0,30.864-9.6,38.7-25.06a5.6,5.6,0,0,0-5.777-8.069Z" transform="translate(-177.155 -190.409)" fill="#c30010"/><path d="M77.024,380.118,77,380.091v54.626a4.869,4.869,0,0,0,3.56-1.509l25.022-26.155C122.14,388.126,96.419,361.7,77.024,380.118Z" transform="translate(-76.996 -210.062)" fill="#c30010"/><path d="M436.974,388.468l-.024-.023V436a4.239,4.239,0,0,0,3.1-1.314l21.782-22.767C476.247,395.439,453.857,372.433,436.974,388.468Z" transform="translate(-278.497 -215.189)" fill="#c30010"/><path d="M429.513,8.421l-.03-.029V66.936a5.218,5.218,0,0,0,3.815-1.618l26.817-28.03C477.865,17,450.3-11.321,429.513,8.421Z" transform="translate(-274.317 -1.737)" fill="#c30010"/></g></g></svg>