<svg xmlns="http://www.w3.org/2000/svg" width="225.465" height="225.391" viewBox="0 0 225.465 225.391"><g transform="translate(0)"><g transform="translate(0 0)"><ellipse cx="112.733" cy="112.695" rx="112.733" ry="112.695" transform="translate(0 0)" fill="#ffeb00"/><path d="M233.307,299.726H110.1a4.7,4.7,0,0,0-4.657,5.205,50.488,50.488,0,0,0,5.473,18.036l60.828,11.73,60.747-11.73a50.494,50.494,0,0,0,5.473-18.036,4.7,4.7,0,0,0-4.658-5.205Z" transform="translate(-59.012 -167.823)" fill="#fff4f4"/><path d="M317.6,299.726H256V334.69l.04.008,60.747-11.73a50.487,50.487,0,0,0,5.473-18.036,4.7,4.7,0,0,0-4.657-5.205Z" transform="translate(-143.309 -167.823)" fill="#f1e1db"/><path d="M117.91,352.524c10.373,19.951,33.686,33.858,60.788,33.858s50.415-13.907,60.788-33.858Z" transform="translate(-66.006 -197.38)" fill="#132c63"/><path d="M256,386.381c27.1,0,50.414-13.907,60.787-33.858H256Z" transform="translate(-143.309 -197.379)" fill="#000f35"/><g transform="translate(49.956 65.624)"><path d="M152.346,178.5a6.6,6.6,0,0,1-6.6-6.6,9.526,9.526,0,0,0-19.052,0,6.6,6.6,0,0,1-13.206,0,22.732,22.732,0,1,1,45.464,0A6.6,6.6,0,0,1,152.346,178.5Z" transform="translate(-113.485 -149.162)" fill="#132c63"/></g><g transform="translate(129.337 65.624)"><path d="M332.674,178.5a6.6,6.6,0,0,1-6.6-6.6,9.526,9.526,0,1,0-19.052,0,6.6,6.6,0,0,1-13.206,0,22.732,22.732,0,0,1,45.464,0,6.6,6.6,0,0,1-6.6,6.6Z" transform="translate(-293.813 -149.162)" fill="#000f35"/></g></g><g transform="translate(0.041 105.827)"><path d="M45.623,276.717l8-29.007a5.7,5.7,0,0,0-6.867-7.053l-29.5,7.292A20.437,20.437,0,0,0,6.94,253.506a23.408,23.408,0,0,0,33.1,33.1A21.176,21.176,0,0,0,45.623,276.717Z" transform="translate(-0.094 -240.49)" fill="#9bfcff"/><path d="M62.328,249.368a5.7,5.7,0,0,0-1.411-5.5,5.573,5.573,0,0,0-.458-.42L15.643,288.269a23.435,23.435,0,0,0,33.1,0,21.164,21.164,0,0,0,5.579-9.893Z" transform="translate(-8.799 -242.149)" fill="#00faff"/></g><g transform="translate(171.388 105.827)"><path d="M397.594,276.92l-8.046-29.169a5.735,5.735,0,0,1,6.905-7.093l29.663,7.332a20.554,20.554,0,0,1,10.377,5.588A23.539,23.539,0,0,1,403.2,286.868a21.292,21.292,0,0,1-5.609-9.948Z" transform="translate(-389.34 -240.49)" fill="#00faff"/><path d="M389.547,249.418a5.736,5.736,0,0,1,1.419-5.526,5.487,5.487,0,0,1,.461-.423l45.066,45.066a23.566,23.566,0,0,1-33.289,0,21.287,21.287,0,0,1-5.61-9.948Z" transform="translate(-389.341 -242.158)" fill="#17cdf5"/></g></g></svg>