<svg xmlns="http://www.w3.org/2000/svg" width="225.493" height="225.391" viewBox="0 0 225.493 225.391"><g transform="translate(0)"><g transform="translate(0.027 42.268)"><path d="M225.527,177.225a112.733,112.733,0,0,1-225.465,0c0-62.24,50.472-62.043,112.733-62.043s112.733-.2,112.733,62.043Z" transform="translate(-0.062 -106.798)" fill="#ffeb00"/></g><path d="M225.152,351.979c13.1,0,21.05-23.989,24.779-19.258V313.66a24.488,24.488,0,1,0-48.976,0v18.88C204.569,327.8,212.215,351.979,225.152,351.979Z" transform="translate(-112.494 -161.929)" fill="#ff001e"/><g transform="translate(0 121.601)"><path d="M37.629,286.556A20.1,20.1,0,0,0,2.2,305.517l5.679,11.2a61.769,61.769,0,0,1,6.645,27.8v29.017a6.6,6.6,0,0,0,6.6,6.6H48.514a6.6,6.6,0,0,0,6.6-6.6V337.169a74.83,74.83,0,0,0-9.635-36.692Z" transform="translate(0 -276.355)" fill="#fff69a"/><path d="M431.53,278.788a20.178,20.178,0,0,0-27.126,7.769l-7.853,13.921a74.833,74.833,0,0,0-9.636,36.692v36.366a6.6,6.6,0,0,0,6.6,6.6H420.9a6.6,6.6,0,0,0,6.6-6.6V344.518a61.772,61.772,0,0,1,6.645-27.8l5.679-11.2A20,20,0,0,0,431.53,278.788Z" transform="translate(-216.595 -276.355)" fill="#ffeb00"/></g><path d="M256.293,289.173c-.077,0-.152.005-.229.006v62.8c13.064-.076,20.995-23.98,24.717-19.256V313.661a24.488,24.488,0,0,0-24.488-24.488Z" transform="translate(-143.344 -161.929)" fill="#c30010"/><path d="M225.152,360.431a29.789,29.789,0,0,0-24.2,12v3.239a24.488,24.488,0,1,0,48.976,0v-3.058A31.09,31.09,0,0,0,225.152,360.431Z" transform="translate(-112.494 -201.82)" fill="#ff9ac9"/><path d="M256.064,360.431v39.72c.077,0,.152.006.229.006a24.488,24.488,0,0,0,24.488-24.488v-3.057A31.089,31.089,0,0,0,256.064,360.431Z" transform="translate(-143.344 -201.82)" fill="#ff5ca8"/><path d="M112.754,67.907a127.291,127.291,0,0,1,111,64.91A112.738,112.738,0,1,0,.062,112.811a113.345,113.345,0,0,0,1.752,19.895,127.291,127.291,0,0,1,110.94-64.8Z" transform="translate(-0.035 -0.116)" fill="#ca75f5"/><ellipse cx="21.579" cy="28.506" rx="21.579" ry="28.506" transform="translate(119.587 59.666) rotate(-13.536)" fill="#fff4f4"/><ellipse cx="28.506" cy="21.579" rx="28.506" ry="21.579" transform="translate(50.161 104.905) rotate(-76.464)" fill="#fff"/></g></svg>