<svg xmlns="http://www.w3.org/2000/svg" width="225.465" height="225.391" viewBox="0 0 225.465 225.391"><g transform="translate(0 0)"><ellipse cx="112.733" cy="112.695" rx="112.733" ry="112.695" transform="translate(0 0)" fill="#ffeb00"/></g><g transform="translate(68.772 133.063)"><path d="M162.836,348.194a6.612,6.612,0,0,1-6.174-8.97,60.13,60.13,0,0,1,18.177-23.4c11.947-9.407,33.26-18.761,66.942-9.905a6.6,6.6,0,0,1-3.357,12.772c-22.551-5.928-41.033-3.528-54.936,7.137a47.724,47.724,0,0,0-14.495,18.124,6.581,6.581,0,0,1-6.157,4.244Z" transform="translate(-156.228 -302.362)" fill="#132c63"/></g><g transform="translate(53.209 73.372)"><ellipse cx="17.139" cy="17.134" rx="17.139" ry="17.134" fill="#132c63"/><g transform="translate(84.687)"><ellipse cx="17.139" cy="17.134" rx="17.139" ry="17.134" fill="#000f35"/></g></g><path d="M297.635,305.919c-16.847-4.429-30.6-4.3-41.633-1.893v13.538c10.991-3.046,23.792-2.68,38.276,1.127a6.6,6.6,0,1,0,3.357-12.772Z" transform="translate(-143.309 -169.3)" fill="#000f35"/></svg>